<svg width="336" height="700" viewBox="0 0 336 700" fill="none" xmlns="http://www.w3.org/2000/svg">
<path d="M248.599 398.1H155.899V451.7H248.599V398.1Z" fill="#30B5B2"/>
<path d="M186.699 184.2H53.8994V237.8H186.699V184.2Z" fill="#30B5B2"/>
<path d="M336 291.1H72.5996V344.7H336V291.1Z" fill="#30B5B2"/>
<path d="M298.199 451.7H152.399V505.3H298.199V451.7Z" fill="#30B5B2"/>
<path d="M201.299 663.3H103.399V687.3H201.299V663.3Z" fill="#26A8A1"/>
<path d="M174.699 637H148.899V675.5H174.699V637Z" fill="#FBC3AA"/>
<path d="M201.8 694H126.3C126.3 677.1 140 663.3 157 663.3H201.8V694Z" fill="#DD3142"/>
<path d="M177 694C177 673.6 193.6 657 214 657C234.4 657 251 673.6 251 694H177Z" fill="#DD3142"/>
<path d="M251 699.3H126.3C124.8 699.3 123.6 698.1 123.6 696.6C123.6 695.1 124.8 693.9 126.3 693.9H251C252.5 693.9 253.7 695.1 253.7 696.6C253.7 698.1 252.5 699.3 251 699.3Z" fill="#212D47"/>
<path d="M216 666.1C220.584 666.1 224.3 664.846 224.3 663.3C224.3 661.754 220.584 660.5 216 660.5C211.416 660.5 207.7 661.754 207.7 663.3C207.7 664.846 211.416 666.1 216 666.1Z" fill="white"/>
<path d="M167.2 666C167.2 665.5 167.3 665 167.5 664.5C168.3 662.9 170.1 662.3 171.7 663.1" stroke="#D32A3B" stroke-width="3" stroke-miterlimit="10" stroke-linecap="round" stroke-linejoin="round"/>
<path d="M173 666C173 665.5 173.1 665 173.3 664.5C174.1 662.9 175.9 662.3 177.5 663.1" stroke="#D32A3B" stroke-width="3" stroke-miterlimit="10" stroke-linecap="round" stroke-linejoin="round"/>
<path d="M178.5 666C178.5 665.5 178.6 665 178.8 664.5C179.6 662.9 181.4 662.3 183 663.1" stroke="#D32A3B" stroke-width="3" stroke-miterlimit="10" stroke-linecap="round" stroke-linejoin="round"/>
<path d="M313.8 277H300.1C295.1 277 291.1 273 291.1 268V189.8C291.1 184.8 295.1 180.8 300.1 180.8H313.8C318.8 180.8 322.8 184.8 322.8 189.8V268C322.8 272.9 318.8 277 313.8 277Z" fill="#BCBCBC"/>
<path d="M322.5 277H308.8C303.8 277 299.8 273 299.8 268V189.8C299.8 184.8 303.8 180.8 308.8 180.8H322.5C327.5 180.8 331.5 184.8 331.5 189.8V268C331.5 272.9 327.5 277 322.5 277Z" fill="#F7F7F7"/>
<path d="M283.8 295.5V338.3C283.8 357.5 268.6 373.7 249.4 374.2C229.6 374.7 213.3 358.7 213.3 339V280.6C213.3 269.8 204.6 261.1 193.8 261.1C183 261.1 174.3 269.8 174.3 280.6V339C174.3 380 207.5 413.2 248.5 413.2C289.5 413.2 322.7 380 322.7 339V295.5H283.8Z" fill="#DD3142"/>
<path d="M283.8 295.5V338.3C283.8 357.5 268.6 373.7 249.4 374.2C229.6 374.7 213.3 358.7 213.3 339V280.6C213.3 269.8 204.6 261.1 193.8 261.1C183 261.1 174.3 269.8 174.3 280.6V339C174.3 380 207.5 413.2 248.5 413.2C289.5 413.2 322.7 380 322.7 339V295.5H283.8Z" fill="#DD3142"/>
<path d="M193.799 271.1C198.999 271.1 203.299 275.4 203.299 280.6V339C203.299 351.1 207.999 362.4 216.599 371C225.199 379.6 236.499 384.3 248.599 384.3C248.999 384.3 249.299 384.3 249.699 384.3C273.999 383.7 293.899 363.1 293.899 338.4V305.6L301.199 295.6H283.899V338.4C283.899 357.6 268.699 373.8 249.499 374.3C229.699 374.8 213.399 358.8 213.399 339.1V280.7C213.399 269.9 204.699 261.2 193.899 261.2C191.099 261.2 188.399 261.8 185.899 262.9C189.799 267.8 192.699 271.1 193.799 271.1Z" fill="#D82B45"/>
<path d="M186.7 439.1H133.6V648.7H186.7V439.1Z" fill="#212D47"/>
<path d="M186.7 637H133.6V648.7H186.7V637Z" fill="#2D3854"/>
<path d="M151.999 439.1H98.8994V648.7H151.999V439.1Z" fill="#2D3854"/>
<path d="M138.3 637H112.5V675.5H138.3V637Z" fill="#FBC3AA"/>
<path d="M151.999 637H98.8994V648.7H151.999V637Z" fill="#394663"/>
<path d="M183.2 471.5H98C87.8 471.5 79.5 463.2 79.5 453V437H201.7V453C201.7 463.2 193.4 471.5 183.2 471.5Z" fill="#2D3854"/>
<path d="M114.1 424.9H31.5998C11.7998 424.9 -2.90019 400.1 1.39981 373.9L12.2998 307C16.6998 280.2 34.1998 261 54.4998 261H87.4998L114.1 424.9Z" fill="#22314C"/>
<path d="M46.6997 405C32.0997 405 20.5997 392.6 21.5997 378.1L23.3997 353.4H69.9997L71.7997 378.1C72.7997 392.6 61.2997 405 46.6997 405Z" fill="#2D3854"/>
<path d="M201.7 415.4H79.5V443.1H201.7V415.4Z" fill="#DD3142"/>
<path d="M198.799 433.6H77.2994C75.6994 433.6 74.3994 432.3 74.3994 430.7V286.9C74.3994 272.6 85.9994 261.1 100.199 261.1H184.099C193.799 261.1 201.599 269 201.599 278.6V430.7C201.699 432.3 200.399 433.6 198.799 433.6Z" fill="#E53E46"/>
<path d="M155.4 288.2H133.4C128.3 288.2 124.2 284.1 124.2 279V261.2H170.6V273C170.6 281.4 163.8 288.2 155.4 288.2Z" fill="#DD3142"/>
<path d="M168.6 244.2L145.6 246.8L146.2 261.2H168.6C186.8 261.2 201.6 276 201.6 294.2V418C211 418 218.6 410.4 218.6 401V294.2C218.6 266.6 196.3 244.2 168.6 244.2Z" fill="#2D3854"/>
<path d="M209.3 291.4C209.3 270.3 192.2 253.2 171.1 253.2H153.9V244.2H146.2V261.2H168.6C186.8 261.2 201.6 276 201.6 294.2V418C204.4 418 207 417.3 209.3 416.2V291.4Z" fill="#25314C"/>
<path d="M153.899 279.6H134.899C129.099 279.6 124.399 274.9 124.399 269.1V214H164.399V269.1C164.399 274.9 159.699 279.6 153.899 279.6Z" fill="#FBC3AA"/>
<path opacity="0.76" d="M137.899 216.2H164.399V214H124.399V269.1C124.399 274.9 129.099 279.6 134.899 279.6H137.999V216.2H137.899Z" fill="#F2AD91"/>
<path d="M124.399 242.9C131.899 244.2 144.799 244.8 158.499 238.8C160.699 237.8 162.599 236.8 164.399 235.6V214H124.399V242.9Z" fill="#ED9C80"/>
<path d="M96.1994 246H79.9994C71.5994 246 64.8994 252.8 64.8994 261.1V265.2L73.8994 261.8C88.1994 261.8 99.8994 271.5 99.8994 285.8V402.3C99.8994 411 106.899 418 115.599 418C124.299 418 131.299 411 131.299 402.3V280.9C131.099 261.6 115.499 246 96.1994 246Z" fill="#2D3854"/>
<path d="M109.8 285.8V416.9C103.9 414.6 99.7998 409 99.7998 402.3V303.4C105.3 297.9 108.8 290.3 108.8 282C108.8 279.2 108.4 276.5 107.7 273.9C109 277.5 109.8 281.6 109.8 285.8Z" fill="#25314C"/>
<path d="M302.7 312.7C318.164 312.7 330.7 300.164 330.7 284.7C330.7 269.236 318.164 256.7 302.7 256.7C287.236 256.7 274.7 269.236 274.7 284.7C274.7 300.164 287.236 312.7 302.7 312.7Z" fill="#FBC3AA"/>
<path opacity="0.76" d="M314.5 303.4C296.9 303.4 282.6 289.1 282.6 271.5C282.6 269 282.9 266.6 283.4 264.3C278 269.4 274.6 276.7 274.6 284.7C274.6 300.2 287.1 312.7 302.6 312.7C311.7 312.7 319.7 308.4 324.9 301.7C321.7 302.8 318.2 303.4 314.5 303.4Z" fill="#F2AD91"/>
<path d="M165.5 694H90C90 677.1 103.7 663.3 120.7 663.3H165.5V694Z" fill="#DD3142"/>
<path d="M140.7 694C140.7 673.6 157.3 657 177.7 657C198.1 657 214.7 673.6 214.7 694H140.7Z" fill="#E53E46"/>
<path d="M214.7 699.3H89.9998C88.4998 699.3 87.2998 698.1 87.2998 696.6C87.2998 695.1 88.4998 693.9 89.9998 693.9H214.7C216.2 693.9 217.4 695.1 217.4 696.6C217.3 698.1 216.1 699.3 214.7 699.3Z" fill="#212D47"/>
<path d="M188.699 666.1C193.283 666.1 196.999 664.846 196.999 663.3C196.999 661.754 193.283 660.5 188.699 660.5C184.115 660.5 180.399 661.754 180.399 663.3C180.399 664.846 184.115 666.1 188.699 666.1Z" fill="white"/>
<path d="M130.899 666C130.899 665.5 130.999 665 131.199 664.5C131.999 662.9 133.799 662.3 135.399 663.1" stroke="#D32A3B" stroke-width="3" stroke-miterlimit="10" stroke-linecap="round" stroke-linejoin="round"/>
<path d="M136.7 666C136.7 665.5 136.8 665 137 664.5C137.8 662.9 139.6 662.3 141.2 663.1" stroke="#D32A3B" stroke-width="3" stroke-miterlimit="10" stroke-linecap="round" stroke-linejoin="round"/>
<path d="M142.1 666C142.1 665.5 142.2 665 142.4 664.5C143.2 662.9 145 662.3 146.6 663.1" stroke="#D32A3B" stroke-width="3" stroke-miterlimit="10" stroke-linecap="round" stroke-linejoin="round"/>
<path d="M156.5 227.5C122.3 234 89.3 211.4 82.9 177.2L62.5 69.2002L213.8 40.7002L229 121.3C238.4 170.6 205.9 218.2 156.5 227.5Z" fill="#FBC3AA"/>
<path opacity="0.76" d="M124.4 177.2L104 69.2001L215.2 48.2001L213.8 40.6001L62.5 69.1001L82.9 177.1C89.4 211.3 122.3 233.8 156.5 227.4C159.7 226.8 162.9 226 165.9 225.1C145.2 218.1 128.8 200.3 124.4 177.2Z" fill="#F2AD91"/>
<path d="M216.5 48.7001L211 17.1001L61.0001 54.4001C56.3001 55.6001 53.4001 60.1001 54.3001 64.9001L73.2001 165.3L98.0001 160.6L86.4001 83.7001L216.5 48.7001Z" fill="#C65132"/>
<path d="M162.8 172.9C151.9 172.9 141.7 170.9 133.1 167.4C136.9 183.3 148.7 194.9 162.8 194.9C176.9 194.9 188.6 183.3 192.5 167.4C183.8 170.8 173.7 172.9 162.8 172.9Z" fill="white"/>
<path d="M131 129.9C130.2 125.7 133 121.6 137.2 120.9C141.4 120.1 145.5 122.9 146.2 127.1" stroke="#3F2E21" stroke-width="4" stroke-miterlimit="10" stroke-linecap="round" stroke-linejoin="round"/>
<path d="M117.7 116.1L144 103" stroke="#DD6944" stroke-width="8" stroke-miterlimit="10" stroke-linecap="round" stroke-linejoin="round"/>
<path d="M193.4 115.2C192.6 111 188.6 108.2 184.4 109C180.2 109.8 177.4 113.8 178.2 118" stroke="#3F2E21" stroke-width="4" stroke-miterlimit="10" stroke-linecap="round" stroke-linejoin="round"/>
<path d="M200.3 101.1L171 98.5" stroke="#DD6944" stroke-width="8" stroke-miterlimit="10" stroke-linecap="round" stroke-linejoin="round"/>
<path d="M207.5 54.8003C209 61.0003 220.5 103.1 220.5 103.1H225.5L214.8 46.3003L207.5 54.8003Z" fill="#C65132"/>
<path d="M75.2994 174.1C88.7752 174.1 99.6994 163.176 99.6994 149.7C99.6994 136.225 88.7752 125.3 75.2994 125.3C61.8237 125.3 50.8994 136.225 50.8994 149.7C50.8994 163.176 61.8237 174.1 75.2994 174.1Z" fill="#FBC3AA"/>
<path d="M78.6994 162.5C85.7687 162.5 91.4994 156.769 91.4994 149.7C91.4994 142.631 85.7687 136.9 78.6994 136.9C71.6302 136.9 65.8994 142.631 65.8994 149.7C65.8994 156.769 71.6302 162.5 78.6994 162.5Z" fill="#F2AD91"/>
<path d="M226.899 0.600098C238.699 31.3001 223.399 65.7001 192.699 77.4001C161.999 89.2001 127.599 73.9001 115.899 43.2001L226.899 0.600098Z" fill="#DD6944"/>
<path d="M157.7 13.7002C169.1 35.5002 160.6 62.4002 138.8 73.8002C117 85.2002 90.1002 76.7002 78.7002 54.9002L157.7 13.7002Z" fill="#DD6944"/>
<path d="M99.7998 303.4V285.8C99.7998 271.5 88.1998 261.8 73.7998 261.8L64.7998 265.2V261.1C64.7998 258.7 65.3998 256.4 66.3998 254.3C70.0998 252.6 74.1998 251.7 78.5998 251.7C84.1998 251.7 89.3998 253.2 93.8998 255.9C100.5 259.8 105.5 266.2 107.6 273.7C108.3 276.3 108.7 279 108.7 281.8C108.8 290.3 105.3 297.9 99.7998 303.4Z" fill="#25314C"/>
<path d="M112.399 475C128.14 475 140.899 462.24 140.899 446.5C140.899 430.76 128.14 418 112.399 418C96.6593 418 83.8994 430.76 83.8994 446.5C83.8994 462.24 96.6593 475 112.399 475Z" fill="#FBC3AA"/>
<path d="M146.4 455.2L132.1 448.2C128.3 446.3 126.7 441.7 128.6 437.9L132 431L153.2 441.4C157 443.3 158.6 447.9 156.7 451.7C154.9 455.6 150.3 457.1 146.4 455.2Z" fill="#F2AD91"/>
<path d="M116.6 477.3L120.5 459.6C121.5 454.8 126.2 451.8 131 452.9L138.5 454.6C139.1 454.7 139.5 455.3 139.3 455.9L133.8 481.1C132.8 485.9 128.1 488.9 123.3 487.8C118.6 486.7 115.5 482 116.6 477.3Z" fill="#F2AD91"/>
<path d="M123.8 451.3C132.6 441.9 131.3 427 121 419.2C100.6 403.7 86.2999 380.1 83.3999 353C80.9999 331.3 86.0999 310.5 96.3999 293.1C100.7 285.9 100.6 276.6 95.7999 269.7C86.8999 256.7 67.5999 257.2 59.4999 270.5C44.5999 295.2 37.1999 324.7 40.0999 355.6C43.8999 395.9 64.7999 430.9 94.9999 453.8C103.9 460.5 116.3 459.3 123.8 451.3Z" fill="#DD3142"/>
<path d="M96.4996 293.1C99.1996 288.6 100.1 283.4 99.2996 278.4C95.0996 282.8 90.7997 287 89.5997 289C77.8997 308.6 72.9996 331.1 75.4996 353.9C78.5996 382.1 93.3997 408.3 116.2 425.6C118.6 427.4 125.8 435.4 129.2 440.8C130.8 433 127.9 424.5 121 419.2C100.6 403.7 86.2996 380.1 83.3996 353C81.0996 331.2 86.0996 310.5 96.4996 293.1Z" fill="#D82B45"/>
<path d="M156.399 334C161.37 334 165.399 329.971 165.399 325C165.399 320.029 161.37 316 156.399 316C151.429 316 147.399 320.029 147.399 325C147.399 329.971 151.429 334 156.399 334Z" fill="#DD3142"/>
<path d="M139.899 356.3C142.385 356.3 144.399 354.286 144.399 351.8C144.399 349.315 142.385 347.3 139.899 347.3C137.414 347.3 135.399 349.315 135.399 351.8C135.399 354.286 137.414 356.3 139.899 356.3Z" fill="#DD3142"/>
<path d="M178.8 341.7C181.285 341.7 183.3 339.685 183.3 337.2C183.3 334.715 181.285 332.7 178.8 332.7C176.315 332.7 174.3 334.715 174.3 337.2C174.3 339.685 176.315 341.7 178.8 341.7Z" fill="#DD3142"/>
<path d="M168.899 360.8C171.385 360.8 173.399 358.786 173.399 356.3C173.399 353.815 171.385 351.8 168.899 351.8C166.414 351.8 164.399 353.815 164.399 356.3C164.399 358.786 166.414 360.8 168.899 360.8Z" fill="#DD3142"/>
<path opacity="0.69" d="M145.344 144.62C151.595 142.777 156.055 139.222 155.306 136.68C154.556 134.137 148.881 133.569 142.63 135.411C136.379 137.254 131.919 140.808 132.668 143.351C133.418 145.894 139.093 146.462 145.344 144.62Z" fill="#F2AD91"/>
<path opacity="0.69" d="M191.547 132.495C198.008 131.64 202.963 128.816 202.616 126.188C202.268 123.56 196.748 122.122 190.287 122.977C183.826 123.832 178.871 126.656 179.219 129.284C179.566 131.912 185.086 133.35 191.547 132.495Z" fill="#F2AD91"/>
<path d="M316.1 203.7C318.53 203.7 320.5 201.73 320.5 199.3C320.5 196.87 318.53 194.9 316.1 194.9C313.67 194.9 311.7 196.87 311.7 199.3C311.7 201.73 313.67 203.7 316.1 203.7Z" fill="#BCBCBC"/>
</svg>
